# xmcd CD database file
#
# Track frame offsets:
#	182
#	13637
#	27635
#	42287
#	56572
#	71260
#	86467
#	101615
#	113920
#	129122
#	143485
#	158807
#	173037
#	192410
#	211320
#	230685
#	248610
#	262960
#	276242
#	289817
#
# Disc length: 4065 seconds
#
# Revision: 0
# Processed by: cddbd v1.4PL0 Copyright (c) Steve Scherf et al.
# Submitted via: CDex 1.50beta9
#
DISCID=140fdf14
DTITLE=Jack Teagarden - 1940-1941
DYEAR=1995
DGENRE=Jazz
TTITLE0=Love for Sale
TTITLE1=You, You Darling
TTITLE2=Moon and the Willow Tree
TTITLE3=Wham (Re-Bop-Boom-Bam!)
TTITLE4=Devil May Care
TTITLE5=Night on the Shalimar
TTITLE6=I Hear Bluebirds
TTITLE7=Fatima's Drummer Boy
TTITLE8=Now I Lay Me Down to Dream
TTITLE9=Wait Till I Catch You in My Dreams
TTITLE10=And So Do I
TTITLE11=River Home
TTITLE12=St. James Infirmary
TTITLE13=World Is Waiting for the Sunrise
TTITLE14=Big Eight Blues
TTITLE15=Shine
TTITLE16=Here's My Heart
TTITLE17=Frenesi
TTITLE18=It All Comes Back to Me Now
TTITLE19=Accidentally on Purpose
EXTD=YEAR: 1995
EXTT0=
EXTT1=
EXTT2=
EXTT3=
EXTT4=
EXTT5=
EXTT6=
EXTT7=
EXTT8=
EXTT9=
EXTT10=
EXTT11=
EXTT12=
EXTT13=
EXTT14=
EXTT15=
EXTT16=
EXTT17=
EXTT18=
EXTT19=
PLAYORDER=
